<?xml version="1.0" encoding="UTF-8"?>
<svg id="Layer_1" data-name="Layer 1" xmlns="http://www.w3.org/2000/svg" viewBox="0 0 1283.51 958">
  <defs>
    <style>
      .cls-1, .cls-2 {
        stroke: #010101;
      }

      .cls-1, .cls-3 {
        fill: #fff;
        stroke-miterlimit: 10;
      }

      .cls-2 {
        fill: none;
        stroke-linecap: round;
        stroke-linejoin: round;
        stroke-width: .72px;
      }

      .cls-3 {
        stroke: #231f20;
      }
    </style>
  </defs>
  <g id="MDF_4mm_Cutout" data-name="MDF 4mm Cutout">
    <g id="Box">
      <path class="cls-2" d="M440.5,440.5v-11.34h39.51v11.34h35.5v-11.34h36.5v11.34h35.5v-11.34h36.5v11.34h35.5v-11.34h36.5v11.34h35.5v-11.34h36.5v11.34h35.5v-11.34h39.51v50.35h11.34v36.5h-11.34v35.5h11.34v36.5h-11.34v35.5h11.34v36.5h-11.34v35.5h11.34v36.5h-11.34v35.5h11.34v36.5h-11.34v50.35h-39.51v-11.34h-35.5v11.34h-36.5v-11.34h-35.5v11.34h-36.5v-11.34h-35.5v11.34h-36.5v-11.34h-35.5v11.34h-36.5v-11.34h-35.5v11.34h-39.51v-50.35h-11.34v-36.5h11.34v-35.5h-11.34v-36.5h11.34v-35.5h-11.34v-36.5h11.34v-35.5h-11.34v-36.5h11.34v-35.5h-11.34v-36.5h11.34v-39.01Z"/>
      <path class="cls-2" d="M440.5,11.7V.36h39.51v11.34h35.5V.36h36.5v11.34h35.5V.36h36.5v11.34h35.5V.36h36.5v11.34h35.5V.36h36.5v11.34h35.5V.36h39.51v50.35h11.34v36.5h-11.34v35.5h11.34v36.5h-11.34v35.5h11.34v36.5h-11.34v35.5h11.34v36.5h-11.34v35.5h11.34v36.5h-11.34v50.35h-39.51v-11.34h-35.5v11.34h-36.5v-11.34h-35.5v11.34h-36.5v-11.34h-35.5v11.34h-36.5v-11.34h-35.5v11.34h-36.5v-11.34h-35.5v11.34h-39.51v-50.35h-11.34v-36.5h11.34v-35.5h-11.34v-36.5h11.34v-35.5h-11.34v-36.5h11.34v-35.5h-11.34v-36.5h11.34v-35.5h-11.34v-36.5h11.34V11.7Z"/>
      <g>
        <g id="Sensor_Cutouts" data-name="Sensor Cutouts">
          <g>
            <rect class="cls-1" x="952.83" y="107.05" width="24.2" height="7.3"/>
            <rect class="cls-1" x="952.83" y="310.25" width="34" height="8.5"/>
          </g>
          <g>
            <rect class="cls-1" x="1160.83" y="106.25" width="28.3" height="8.5"/>
            <rect class="cls-1" x="1146.63" y="310.25" width="42.5" height="8.5"/>
          </g>
          <g>
            <circle class="cls-1" cx="1063.33" cy="317.15" r="1.4"/>
            <circle class="cls-1" cx="1068.83" cy="317.15" r="1.4"/>
          </g>
        </g>
        <path class="cls-2" d="M869.29,11.7h39.01V.36h36.5v11.34h35.5V.36h36.5v11.34h35.5V.36h36.5v11.34h35.5V.36h36.5v11.34h35.5V.36h36.5v11.34h39.01v39.01h11.34v36.5h-11.34v35.5h11.34v36.5h-11.34v35.5h11.34v36.5h-11.34v35.5h11.34v36.5h-11.34v35.5h11.34v36.5h-11.34v39.01h-39.01v11.34h-36.5v-11.34h-35.5v11.34h-36.5v-11.34h-35.5v11.34h-36.5v-11.34h-35.5v11.34h-36.5v-11.34h-35.5v11.34h-36.5v-11.34h-39.01v-39.01h-11.34v-36.5h11.34v-35.5h-11.34v-36.5h11.34v-35.5h-11.34v-36.5h11.34v-35.5h-11.34v-36.5h11.34v-35.5h-11.34v-36.5h11.34V11.7Z"/>
      </g>
      <path class="cls-2" d="M869.29,440.5h39.01v-11.34h36.5v11.34h35.5v-11.34h36.5v11.34h35.5v-11.34h36.5v11.34h35.5v-11.34h36.5v11.34h35.5v-11.34h36.5v11.34h39.01v39.01h11.34v36.5h-11.34v35.5h11.34v36.5h-11.34v35.5h11.34v36.5h-11.34v35.5h11.34v36.5h-11.34v35.5h11.34v36.5h-11.34v39.01h-39.01v11.34h-36.5v-11.34h-35.5v11.34h-36.5v-11.34h-35.5v11.34h-36.5v-11.34h-35.5v11.34h-36.5v-11.34h-35.5v11.34h-36.5v-11.34h-39.01v-39.01h-11.34v-36.5h11.34v-35.5h-11.34v-36.5h11.34v-35.5h-11.34v-36.5h11.34v-35.5h-11.34v-36.5h11.34v-35.5h-11.34v-36.5h11.34v-39.01Z"/>
      <path class="cls-2" d="M.36.36h50.85v11.34h35.5V.36h36.5v11.34h35.5V.36h36.5v11.34h35.5V.36h36.5v11.34h35.5V.36h36.5v11.34h35.5V.36h50.85v50.85h-11.34v35.5h11.34v36.5h-11.34v35.5h11.34v36.5h-11.34v35.5h11.34v36.5h-11.34v35.5h11.34v36.5h-11.34v35.5h11.34v50.85h-50.85v-11.34h-35.5v11.34h-36.5v-11.34h-35.5v11.34h-36.5v-11.34h-35.5v11.34h-36.5v-11.34h-35.5v11.34h-36.5v-11.34h-35.5v11.34H.36v-50.85h11.34v-35.5H.36v-36.5h11.34v-35.5H.36v-36.5h11.34v-35.5H.36v-36.5h11.34v-35.5H.36v-36.5h11.34v-35.5H.36V.36Z"/>
      <g>
        <path class="cls-2" d="M.36,429.16h50.85v11.34h35.5v-11.34h36.5v11.34h35.5v-11.34h36.5v11.34h35.5v-11.34h36.5v11.34h35.5v-11.34h36.5v11.34h35.5v-11.34h50.85v50.85h-11.34v35.5h11.34v36.5h-11.34v35.5h11.34v36.5h-11.34v35.5h11.34v36.5h-11.34v35.5h11.34v36.5h-11.34v35.5h11.34v50.85h-50.85v-11.34h-35.5v11.34h-36.5v-11.34h-35.5v11.34h-36.5v-11.34h-35.5v11.34h-36.5v-11.34h-35.5v11.34h-36.5v-11.34h-35.5v11.34H.36v-50.85h11.34v-35.5H.36v-36.5h11.34v-35.5H.36v-36.5h11.34v-35.5H.36v-36.5h11.34v-35.5H.36v-36.5h11.34v-35.5H.36v-50.85Z"/>
        <circle class="cls-1" cx="212.51" cy="773.18" r="21.3"/>
      </g>
    </g>
    <g id="Support">
      <rect class="cls-3" x="1.92" y="871.37" width="85.04" height="85.04"/>
      <rect class="cls-3" x="100.93" y="872.46" width="85.04" height="85.04"/>
    </g>
  </g>
</svg>