<?xml version="1.0" encoding="UTF-8"?>
<svg id="Layer_1" data-name="Layer 1" xmlns="http://www.w3.org/2000/svg" viewBox="0 0 2099.49 1557.93">
  <defs>
    <style>
      .cls-1 {
        stroke-linecap: round;
        stroke-miterlimit: 11.34;
      }

      .cls-1, .cls-2 {
        fill: none;
        stroke: #0f1436;
      }

      .cls-2 {
        stroke-miterlimit: 10;
      }
    </style>
  </defs>
  <g id="Acrylic_Cutout" data-name="Acrylic Cutout">
    <g id="Cutout">
      <polygon id="Corner_4" data-name="Corner 4" class="cls-2" points="677.98 25.34 677.98 731.17 673.71 731.17 673.71 753.62 588.67 753.62 588.67 731.17 479.08 731.17 479.08 753.62 394.04 753.62 394.04 731.17 284.45 731.17 284.45 753.62 199.41 753.62 199.41 731.17 89.82 731.17 89.82 753.62 4.78 753.62 4.78 731.17 .5 731.17 .5 25.34 4.78 25.34 4.78 .79 89.82 .79 89.82 25.34 199.41 25.34 199.41 .79 284.45 .79 284.45 25.34 394.04 25.34 394.04 .79 479.08 .79 479.08 25.34 588.67 25.34 588.67 .79 673.71 .79 673.71 25.34 677.98 25.34"/>
      <polygon id="Corner_3" data-name="Corner 3" class="cls-2" points="1387.88 25.05 1387.88 730.88 1383.61 730.88 1383.61 753.33 1298.57 753.33 1298.57 730.88 1188.98 730.88 1188.98 753.33 1103.94 753.33 1103.94 730.88 994.35 730.88 994.35 753.33 909.31 753.33 909.31 730.88 799.72 730.88 799.72 753.33 714.68 753.33 714.68 730.88 710.4 730.88 710.4 25.05 714.68 25.05 714.68 .5 799.72 .5 799.72 25.05 909.31 25.05 909.31 .5 994.35 .5 994.35 25.05 1103.94 25.05 1103.94 .5 1188.98 .5 1188.98 25.05 1298.57 25.05 1298.57 .5 1383.61 .5 1383.61 25.05 1387.88 25.05"/>
      <polygon id="Corner_2" data-name="Corner 2" class="cls-2" points="678.88 807.05 678.88 1512.88 674.61 1512.88 674.61 1535.33 589.57 1535.33 589.57 1512.88 479.98 1512.88 479.98 1535.33 394.94 1535.33 394.94 1512.88 285.35 1512.88 285.35 1535.33 200.31 1535.33 200.31 1512.88 90.72 1512.88 90.72 1535.33 5.68 1535.33 5.68 1512.88 1.4 1512.88 1.4 807.05 5.68 807.05 5.68 782.5 90.72 782.5 90.72 807.05 200.31 807.05 200.31 782.5 285.35 782.5 285.35 807.05 394.94 807.05 394.94 782.5 479.98 782.5 479.98 807.05 589.57 807.05 589.57 782.5 674.61 782.5 674.61 807.05 678.88 807.05"/>
      <polygon id="Corner_1" data-name="Corner 1" class="cls-2" points="1387.88 815.05 1387.88 1520.88 1383.61 1520.88 1383.61 1543.33 1298.57 1543.33 1298.57 1520.88 1188.98 1520.88 1188.98 1543.33 1103.94 1543.33 1103.94 1520.88 994.35 1520.88 994.35 1543.33 909.31 1543.33 909.31 1520.88 799.72 1520.88 799.72 1543.33 714.68 1543.33 714.68 1520.88 710.4 1520.88 710.4 815.05 714.68 815.05 714.68 790.5 799.72 790.5 799.72 815.05 909.31 815.05 909.31 790.5 994.35 790.5 994.35 815.05 1103.94 815.05 1103.94 790.5 1188.98 790.5 1188.98 815.05 1298.57 815.05 1298.57 790.5 1383.61 790.5 1383.61 815.05 1387.88 815.05"/>
      <rect id="Diagnoal_Plane" data-name="Diagnoal Plane" class="cls-2" x="1421.51" y="7.21" width="677.48" height="958.1"/>
      <rect id="Window" class="cls-1" x="1430.17" y="997.43" width="661" height="560"/>
    </g>
  </g>
</svg>